<svg width="25" height="22" viewBox="0 0 25 22" fill="none" xmlns="http://www.w3.org/2000/svg">
<path fill-rule="evenodd" clip-rule="evenodd" d="M5.327 2.97702C3.46062 3.82977 2.09375 5.85927 2.09375 8.27914C2.09375 10.7508 3.10625 12.6565 4.55525 14.29C5.75112 15.6355 7.19787 16.7515 8.60862 17.8383C8.94387 18.097 9.27687 18.3546 9.60425 18.6123C10.196 19.0791 10.7236 19.4875 11.2332 19.7856C11.7417 20.0826 12.1512 20.2188 12.5 20.2188C12.8487 20.2188 13.2582 20.0838 13.7667 19.7856C14.2764 19.4875 14.804 19.0791 15.3957 18.6123C15.722 18.3535 16.0561 18.097 16.3914 17.8394C17.8021 16.7504 19.2489 15.6355 20.4447 14.29C21.8949 12.6565 22.9062 10.7508 22.9062 8.27914C22.9062 5.86039 21.5394 3.82977 19.673 2.97702C17.8595 2.14789 15.4227 2.36727 13.1075 4.77364C13.0288 4.8553 12.9344 4.92026 12.83 4.96462C12.7257 5.00899 12.6134 5.03185 12.5 5.03185C12.3866 5.03185 12.2743 5.00899 12.1699 4.96462C12.0656 4.92026 11.9712 4.8553 11.8925 4.77364C9.57725 2.36727 7.1405 2.14789 5.327 2.97702ZM12.5 3.01752C9.899 0.688767 6.98637 0.362517 4.625 1.44139C2.13425 2.58327 0.40625 5.22927 0.40625 8.28027C0.40625 11.2784 1.655 13.5666 3.29412 15.4116C4.60587 16.8888 6.21125 18.1251 7.62987 19.2164C7.95162 19.4639 8.26325 19.7046 8.55912 19.9386C9.13625 20.3931 9.755 20.8769 10.3816 21.2436C11.0082 21.6093 11.7237 21.9074 12.5 21.9074C13.2762 21.9074 13.9917 21.6093 14.6184 21.2436C15.2461 20.8769 15.8637 20.3931 16.4409 19.9386C16.749 19.6958 17.0588 19.4551 17.3701 19.2164C18.7876 18.1251 20.3941 16.8876 21.7059 15.4116C23.345 13.5666 24.5937 11.2784 24.5937 8.28027C24.5937 5.22927 22.8669 2.58327 20.375 1.44364C18.0136 0.363642 15.101 0.689892 12.5 3.01752Z" fill="#272727"/>
</svg>
