<svg width="52" height="52" viewBox="0 0 52 52" fill="none" xmlns="http://www.w3.org/2000/svg">
<rect x="0.5" y="0.5" width="51" height="51" rx="5.5" stroke="#E0E0E0"/>
<path fill-rule="evenodd" clip-rule="evenodd" d="M31.8134 13.3833C31.9381 13.4902 32.0406 13.6206 32.1148 13.7671C32.1891 13.9135 32.2338 14.0732 32.2463 14.237C32.2589 14.4007 32.239 14.5654 32.1879 14.7215C32.1368 14.8775 32.0554 15.022 31.9484 15.1466L22.6468 26L31.9484 36.8533C32.0616 36.9769 32.1488 37.122 32.2048 37.2799C32.2607 37.4379 32.2844 37.6054 32.2743 37.7727C32.2642 37.94 32.2206 38.1035 32.1461 38.2536C32.0715 38.4037 31.9675 38.5372 31.8403 38.6463C31.7131 38.7554 31.5653 38.8378 31.4056 38.8886C31.2459 38.9394 31.0777 38.9576 30.9108 38.9421C30.7439 38.9266 30.5819 38.8777 30.4343 38.7983C30.2868 38.7189 30.1567 38.6106 30.0518 38.48L20.0518 26.8133C19.8577 26.5868 19.751 26.2983 19.751 26C19.751 25.7016 19.8577 25.4132 20.0518 25.1866L30.0518 13.52C30.2676 13.2686 30.5743 13.1132 30.9047 13.0879C31.235 13.0626 31.5618 13.1694 31.8134 13.385" fill="#BDBDBD"/>
</svg>
