<svg width="31" height="31" viewBox="0 0 31 31" fill="none" xmlns="http://www.w3.org/2000/svg">
<path fill-rule="evenodd" clip-rule="evenodd" d="M14.4526 2.84867C13.6084 2.96004 12.5661 3.19929 11.0839 3.54167L9.394 3.93217C8.14275 4.22092 7.27925 4.42167 6.62062 4.64717C5.984 4.86579 5.62375 5.08029 5.35287 5.35254C5.08062 5.62342 4.86612 5.98367 4.6475 6.62029C4.422 7.27892 4.22125 8.14104 3.9325 9.39367L3.542 11.0822C3.19962 12.5658 2.96037 13.608 2.849 14.4523C2.739 15.2745 2.76512 15.8314 2.91087 16.3374C3.05525 16.8434 3.32887 17.3288 3.85687 17.9682C4.4 18.6254 5.15487 19.383 6.2315 20.4597L8.74775 22.9759C10.6164 24.8445 11.946 26.1714 13.09 27.0432C14.2092 27.8984 15.0287 28.2188 15.8606 28.2188C16.6939 28.2188 17.512 27.8984 18.6326 27.0432C19.7752 26.1714 21.1063 24.8432 22.9749 22.9745C24.8449 21.1045 26.1717 19.7749 27.0449 18.6323C27.8974 17.5117 28.2191 16.6935 28.2191 15.8603C28.2191 15.0284 27.8988 14.2103 27.0435 13.0897C26.1717 11.9457 24.8435 10.6147 22.9749 8.74604L20.4586 6.22979C19.3834 5.15454 18.6257 4.39967 17.9699 3.85654C17.3291 3.32854 16.8438 3.05492 16.3377 2.91054C15.8317 2.76479 15.2749 2.74004 14.454 2.84867M14.1845 0.804041C15.1704 0.673416 16.0352 0.677541 16.907 0.927791C17.7801 1.17804 18.5157 1.63317 19.283 2.26567C20.0255 2.87892 20.8505 3.70392 21.8831 4.73654L24.4901 7.34354C26.2914 9.14479 27.7186 10.572 28.6839 11.8398C29.6794 13.1419 30.283 14.3959 30.283 15.8603C30.283 17.326 29.6794 18.58 28.6852 19.8822C27.7186 21.1499 26.2927 22.5772 24.4901 24.3784L24.3801 24.4884C22.5789 26.2897 21.1516 27.7169 19.8839 28.6822C18.5817 29.6777 17.3264 30.2813 15.862 30.2813C14.3976 30.2813 13.1436 29.6777 11.8401 28.6835C10.5737 27.7169 9.1465 26.291 7.34387 24.4884L4.73825 21.88C3.707 20.8488 2.88062 20.0224 2.26737 19.2813C1.63487 18.5127 1.17975 17.777 0.9295 16.9053C0.67925 16.0322 0.675125 15.1673 0.80575 14.1814C0.930875 13.2272 1.19487 12.0887 1.52212 10.6669L1.93462 8.87529C2.20962 7.68867 2.43237 6.72067 2.69775 5.94929C2.9755 5.14217 3.32337 4.46429 3.89537 3.89229C4.46737 3.32029 5.14663 2.97104 5.95237 2.69604C6.72375 2.42929 7.69175 2.20654 8.87837 1.93292L10.67 1.52042C12.0918 1.19042 13.2302 0.929166 14.1845 0.802666M12.0491 9.99317C11.7268 9.6708 11.2895 9.48969 10.8336 9.48969C10.3777 9.48969 9.9405 9.6708 9.61812 9.99317C9.29575 10.3155 9.11465 10.7528 9.11465 11.2087C9.11465 11.6646 9.29575 12.1018 9.61812 12.4242C9.77775 12.5838 9.96724 12.7104 10.1758 12.7968C10.3844 12.8832 10.6079 12.9276 10.8336 12.9276C11.0594 12.9276 11.2829 12.8832 11.4914 12.7968C11.7 12.7104 11.8895 12.5838 12.0491 12.4242C12.2087 12.2645 12.3354 12.075 12.4218 11.8665C12.5081 11.6579 12.5526 11.4344 12.5526 11.2087C12.5526 10.9829 12.5081 10.7594 12.4218 10.5508C12.3354 10.3423 12.2087 10.1528 12.0491 9.99317ZM8.15925 8.53567C8.86835 7.82638 9.83018 7.42783 10.8331 7.4277C11.8361 7.42757 12.798 7.82587 13.5073 8.53498C14.2166 9.24408 14.6151 10.2059 14.6153 11.2089C14.6154 12.2118 14.2171 13.1738 13.508 13.883C12.7987 14.5923 11.8367 14.9908 10.8336 14.9908C9.83054 14.9908 8.86854 14.5923 8.15925 13.883C7.44996 13.1738 7.05149 12.2118 7.05149 11.2087C7.05149 10.2056 7.44996 9.24495 8.15925 8.53567ZM16.863 15.6458C16.5451 15.6579 16.2448 15.7947 16.027 16.0267C15.4935 16.5602 15.6337 17.0923 15.7836 17.2422C15.9349 17.392 16.467 17.5309 16.9991 16.9988C18.0771 15.9208 19.9389 15.5633 21.131 16.7554C22.0564 17.6808 22.0495 19.009 21.4954 20.0609C21.6317 20.2591 21.6944 20.4987 21.6728 20.7383C21.6511 20.9778 21.5463 21.2023 21.3767 21.3728C21.207 21.5433 20.983 21.6491 20.7436 21.6719C20.5041 21.6948 20.2642 21.6332 20.0654 21.4978C19.4483 21.8361 18.7326 21.9489 18.0414 21.8168C17.9087 21.7895 17.7826 21.7364 17.6704 21.6604C17.5582 21.5844 17.4621 21.4871 17.3876 21.374C17.313 21.2608 17.2614 21.1341 17.2358 21.0011C17.2103 20.868 17.2111 20.7313 17.2384 20.5985C17.2656 20.4658 17.3188 20.3398 17.3948 20.2276C17.4707 20.1154 17.5681 20.0193 17.6812 19.9447C17.7943 19.8702 17.921 19.8186 18.0541 19.793C18.1871 19.7674 18.3239 19.7683 18.4566 19.7955C18.7 19.8464 19.0932 19.768 19.4301 19.4298C19.9622 18.8963 19.8234 18.3642 19.6735 18.2143C19.5222 18.0644 18.9901 17.9255 18.458 18.4577C17.38 19.5357 15.5182 19.8932 14.3261 18.701C13.4007 17.7757 13.4076 16.4474 13.9617 15.3955C13.8254 15.1974 13.7627 14.9577 13.7844 14.7182C13.806 14.4786 13.9108 14.2542 14.0805 14.0837C14.2501 13.9132 14.4741 13.8074 14.7135 13.7845C14.953 13.7617 15.1929 13.8233 15.3917 13.9587C15.8592 13.7098 16.3721 13.5778 16.8836 13.5833C17.1571 13.5858 17.4184 13.6969 17.61 13.8921C17.8016 14.0873 17.9078 14.3507 17.9052 14.6242C17.9027 14.8977 17.7916 15.159 17.5964 15.3506C17.4012 15.5421 17.1365 15.6483 16.863 15.6458Z" fill="#FF6543"/>
</svg>
