<svg width="31" height="31" viewBox="0 0 31 31" fill="none" xmlns="http://www.w3.org/2000/svg">
<path fill-rule="evenodd" clip-rule="evenodd" d="M15.5 0.718838C12.9865 0.718838 10.9089 0.940213 9.30975 1.20971L9.1255 1.24134C7.73675 1.47371 6.58175 1.66759 5.67837 2.77859C5.10087 3.49221 4.9125 4.26359 4.86987 5.12296L4.19337 5.34846C3.55675 5.56021 2.99712 5.74721 2.55575 5.95346C2.07725 6.17621 1.63862 6.46221 1.30312 6.92834C0.967625 7.39309 0.83425 7.90046 0.77375 8.42434C0.71875 8.90971 0.71875 9.49684 0.71875 10.1692V10.3686C0.71875 10.9213 0.71875 11.4095 0.76 11.8178C0.804 12.2592 0.901625 12.6896 1.145 13.1048C1.39112 13.5215 1.71838 13.8157 2.08413 14.0687C2.421 14.3025 2.84725 14.5403 3.33125 14.8085L6.96125 16.8256C7.70375 18.2845 8.72262 19.5852 10.1238 20.5243C11.3434 21.3438 12.8078 21.8581 14.5416 21.9942C14.4934 22.1154 14.4687 22.2447 14.4688 22.3751V24.7813H12.5025C11.9462 24.7814 11.4071 24.9741 10.9769 25.3268C10.5467 25.6796 10.252 26.1705 10.143 26.716L9.84188 28.2188H7.25C6.9765 28.2188 6.71419 28.3275 6.5208 28.5209C6.3274 28.7143 6.21875 28.9766 6.21875 29.2501C6.21875 29.5236 6.3274 29.7859 6.5208 29.9793C6.71419 30.1727 6.9765 30.2813 7.25 30.2813H23.75C24.0235 30.2813 24.2858 30.1727 24.4792 29.9793C24.6726 29.7859 24.7812 29.5236 24.7812 29.2501C24.7812 28.9766 24.6726 28.7143 24.4792 28.5209C24.2858 28.3275 24.0235 28.2188 23.75 28.2188H21.1581L20.857 26.716C20.748 26.1705 20.4533 25.6796 20.0231 25.3268C19.5929 24.9741 19.0538 24.7814 18.4975 24.7813H16.5312V22.3751C16.5313 22.2447 16.5066 22.1154 16.4584 21.9942C18.1922 21.8567 19.6566 21.3438 20.8762 20.5257C22.2787 19.5852 23.2962 18.2845 24.0387 16.8256L27.6688 14.8085C28.1528 14.5403 28.579 14.3025 28.9159 14.0687C29.2803 13.8157 29.6089 13.5215 29.8536 13.1062C30.0984 12.6896 30.1974 12.2592 30.24 11.8178C30.2812 11.4095 30.2812 10.9213 30.2812 10.3686V10.1692C30.2812 9.49821 30.2812 8.90971 30.2262 8.42434C30.1657 7.90046 30.0338 7.39309 29.6969 6.92834C29.3614 6.46221 28.9228 6.17621 28.4456 5.95209C28.0015 5.74584 27.4432 5.56021 26.8066 5.34846L26.1301 5.12296C26.0889 4.26221 25.9005 3.49221 25.3216 2.77859C24.4196 1.66621 23.2646 1.47234 21.8759 1.24134L21.6903 1.20971C19.6441 0.874282 17.5735 0.710088 15.5 0.718838ZM19.0544 28.2188L18.8344 27.1202C18.8188 27.0423 18.7767 26.9722 18.7153 26.9218C18.6539 26.8714 18.5769 26.8439 18.4975 26.8438H12.5025C12.4231 26.8439 12.3461 26.8714 12.2847 26.9218C12.2233 26.9722 12.1812 27.0423 12.1656 27.1202L11.9456 28.2188H19.0544ZM4.896 7.28859L4.91525 7.28171C5.01425 9.37171 5.24937 11.6817 5.83787 13.8405L4.37213 13.0278C3.83725 12.7295 3.50175 12.5425 3.25975 12.3747C3.037 12.2193 2.96413 12.1272 2.92425 12.0585C2.883 11.9897 2.839 11.8825 2.8115 11.613C2.78235 11.1837 2.77226 10.7534 2.78125 10.3232V10.2228C2.78125 9.48171 2.78262 9.01284 2.8225 8.65809C2.861 8.33084 2.9215 8.20846 2.9765 8.13421C3.03012 8.05859 3.12637 7.96234 3.42475 7.82346C3.74925 7.67221 4.19475 7.52371 4.896 7.28859ZM26.0847 7.28034C25.9871 9.37034 25.7506 11.6803 25.1635 13.8391L26.6279 13.0265C27.1628 12.7281 27.4983 12.5411 27.7402 12.3733C27.963 12.218 28.0359 12.1258 28.0758 12.0571C28.117 11.9883 28.161 11.8811 28.1885 11.6116C28.2174 11.3173 28.2188 10.9337 28.2188 10.3218V10.2215C28.2188 9.48034 28.2174 9.01146 28.1775 8.65671C28.139 8.32946 28.0785 8.20709 28.0235 8.13284C27.9699 8.05721 27.8736 7.96096 27.5752 7.82209C27.2507 7.67084 26.8053 7.52096 26.104 7.28584L26.0847 7.28034ZM9.6535 3.24334C11.5861 2.92714 13.5417 2.7726 15.5 2.78134C17.8925 2.78134 19.8546 2.99171 21.3465 3.24334C23.0061 3.52384 23.354 3.62834 23.7211 4.07934C24.0814 4.52209 24.1157 4.94284 24.0415 6.80596C23.9177 9.91071 23.508 13.263 22.2402 15.8122C21.6133 17.069 20.7937 18.0975 19.7281 18.8125C18.668 19.5233 17.2999 19.9688 15.5 19.9688C13.7001 19.9688 12.3334 19.5233 11.2732 18.8125C10.2062 18.0975 9.38675 17.069 8.76112 15.8108C7.492 13.263 7.08362 9.91209 6.95988 6.80459C6.88562 4.94284 6.91862 4.52209 7.28025 4.07934C7.646 3.62834 7.99388 3.52384 9.6535 3.24334Z" fill="#FF6543"/>
</svg>
