<svg width="52" height="52" viewBox="0 0 52 52" fill="none" xmlns="http://www.w3.org/2000/svg">
<rect x="0.5" y="0.5" width="51" height="51" rx="5.5" stroke="#E0E0E0"/>
<path fill-rule="evenodd" clip-rule="evenodd" d="M20.1864 13.3833C20.4382 13.1679 20.7652 13.0614 21.0956 13.087C21.4259 13.1126 21.7325 13.2683 21.9481 13.52L31.9481 25.1866C32.1422 25.4131 32.2489 25.7016 32.2489 26C32.2489 26.2983 32.1422 26.5868 31.9481 26.8133L21.9481 38.48C21.729 38.7193 21.4254 38.864 21.1015 38.8835C20.7776 38.903 20.4588 38.7958 20.2125 38.5846C19.9662 38.3734 19.8117 38.0746 19.7816 37.7515C19.7516 37.4284 19.8483 37.1063 20.0514 36.8533L29.3531 26L20.0514 15.1466C19.8357 14.8952 19.7286 14.5685 19.7536 14.2382C19.7786 13.9079 19.9337 13.601 20.1848 13.385" fill="#BDBDBD"/>
</svg>
