<svg width="25" height="25" viewBox="0 0 25 25" fill="none" xmlns="http://www.w3.org/2000/svg">
<path fill-rule="evenodd" clip-rule="evenodd" d="M11.9375 2.09375C10.6448 2.09375 9.36476 2.34837 8.17046 2.84306C6.97616 3.33776 5.891 4.06284 4.97692 4.97692C4.06284 5.891 3.33776 6.97616 2.84306 8.17046C2.34837 9.36476 2.09375 10.6448 2.09375 11.9375C2.09375 13.2302 2.34837 14.5102 2.84306 15.7045C3.33776 16.8988 4.06284 17.984 4.97692 18.8981C5.891 19.8122 6.97616 20.5372 8.17046 21.0319C9.36476 21.5266 10.6448 21.7813 11.9375 21.7813C14.5482 21.7813 17.052 20.7441 18.8981 18.8981C20.7441 17.052 21.7813 14.5482 21.7813 11.9375C21.7813 9.32678 20.7441 6.82298 18.8981 4.97692C17.052 3.13086 14.5482 2.09375 11.9375 2.09375ZM0.40625 11.9375C0.40625 5.57 5.57 0.40625 11.9375 0.40625C18.305 0.40625 23.4688 5.57 23.4688 11.9375C23.4688 14.8175 22.4124 17.4523 20.6664 19.4728L24.3463 23.1538C24.4292 23.231 24.4956 23.3241 24.5418 23.4276C24.5879 23.5311 24.6127 23.6429 24.6147 23.7562C24.6167 23.8695 24.5958 23.982 24.5534 24.0871C24.511 24.1921 24.4478 24.2876 24.3677 24.3677C24.2876 24.4478 24.1921 24.511 24.0871 24.5534C23.982 24.5958 23.8695 24.6167 23.7562 24.6147C23.6429 24.6127 23.5311 24.5879 23.4276 24.5418C23.3241 24.4956 23.231 24.4292 23.1538 24.3463L19.4728 20.6664C17.3806 22.4777 14.7048 23.4728 11.9375 23.4688C5.57 23.4688 0.40625 18.305 0.40625 11.9375Z" fill="#272727"/>
</svg>
