<svg width="24" height="23" viewBox="0 0 24 23" fill="none" xmlns="http://www.w3.org/2000/svg">
<path fill-rule="evenodd" clip-rule="evenodd" d="M1.5307 0.578342C1.31945 0.504048 1.08735 0.516714 0.885442 0.613553C0.683535 0.710392 0.528368 0.883472 0.454074 1.09472C0.37978 1.30596 0.392446 1.53807 0.489285 1.73997C0.586124 1.94188 0.759204 2.09705 0.970449 2.17134L1.2652 2.27372C2.01557 2.53809 2.50945 2.71247 2.87282 2.89134C3.2137 3.05897 3.36445 3.19509 3.46345 3.33909C3.5647 3.48759 3.64345 3.69234 3.68845 4.10072C3.73345 4.52822 3.73457 5.08509 3.73457 5.91759V8.97984C3.73457 10.6145 3.75032 11.7923 3.90445 12.6923C4.0687 13.6531 4.3972 14.3416 5.01257 14.9896C5.68082 15.695 6.52682 16.0021 7.53595 16.1438C8.5012 16.2811 9.72745 16.2811 11.2406 16.2811H17.3223C18.1571 16.2811 18.8591 16.2811 19.4261 16.2113C20.0302 16.1382 20.5792 15.9762 21.0596 15.5858C21.5388 15.1943 21.8077 14.6892 22.0012 14.1132C22.1846 13.571 22.3263 12.8836 22.4951 12.0657L23.0666 9.28809L23.0688 9.28247L23.0801 9.22397C23.2657 8.29584 23.421 7.51509 23.4603 6.88734C23.5008 6.22809 23.4255 5.57784 22.9957 5.01984C22.7313 4.67559 22.3601 4.48097 22.0215 4.36284C21.6556 4.24255 21.2775 4.16331 20.8942 4.12659C20.1213 4.04109 19.182 4.04109 18.2617 4.04109H5.37595C5.37257 4.00056 5.36882 3.96006 5.3647 3.91959C5.30395 3.36047 5.17345 2.85084 4.85507 2.38734C4.53557 1.91934 4.11032 1.62009 3.61532 1.37597C3.15182 1.14872 2.56232 0.941717 1.8682 0.697592L1.5307 0.578342ZM5.4232 5.72859H18.2257C19.1887 5.72859 20.037 5.72972 20.7063 5.80397C21.0393 5.84222 21.288 5.89397 21.4623 5.95472C21.5335 5.97508 21.6005 6.00783 21.6603 6.05147C21.7301 6.14372 21.8043 6.31022 21.7751 6.78384C21.7447 7.28334 21.6142 7.94934 21.4139 8.95059V8.95284L20.8514 11.6753C20.6714 12.5562 20.5477 13.1412 20.4026 13.5743C20.2642 13.9861 20.1337 14.1627 19.9931 14.2775C19.8524 14.3922 19.6522 14.4845 19.2225 14.5362C18.768 14.5925 18.1706 14.5936 17.2717 14.5936H11.3058C9.7117 14.5936 8.60582 14.5913 7.77332 14.4732C6.96782 14.3596 6.5437 14.1526 6.23657 13.8286C5.87657 13.4483 5.68195 13.0771 5.5672 12.4077C5.44345 11.6765 5.42207 10.655 5.42207 8.97984L5.4232 5.72859ZM7.43807 22.4686C6.76675 22.4686 6.12291 22.2019 5.64821 21.7272C5.17351 21.2525 4.90682 20.6087 4.90682 19.9373C4.90682 19.266 5.17351 18.6222 5.64821 18.1475C6.12291 17.6728 6.76675 17.4061 7.43807 17.4061C8.1094 17.4061 8.75324 17.6728 9.22794 18.1475C9.70264 18.6222 9.96933 19.266 9.96933 19.9373C9.96933 20.6087 9.70264 21.2525 9.22794 21.7272C8.75324 22.2019 8.1094 22.4686 7.43807 22.4686ZM6.59432 19.9373C6.59432 20.1611 6.68322 20.3757 6.84145 20.534C6.99969 20.6922 7.2143 20.7811 7.43807 20.7811C7.66185 20.7811 7.87646 20.6922 8.0347 20.534C8.19293 20.3757 8.28183 20.1611 8.28183 19.9373C8.28183 19.7136 8.19293 19.499 8.0347 19.3407C7.87646 19.1825 7.66185 19.0936 7.43807 19.0936C7.2143 19.0936 6.99969 19.1825 6.84145 19.3407C6.68322 19.499 6.59432 19.7136 6.59432 19.9373ZM17.5631 22.4686C16.8917 22.4686 16.2479 22.2019 15.7732 21.7272C15.2985 21.2525 15.0318 20.6087 15.0318 19.9373C15.0318 19.266 15.2985 18.6222 15.7732 18.1475C16.2479 17.6728 16.8917 17.4061 17.5631 17.4061C18.2344 17.4061 18.8782 17.6728 19.3529 18.1475C19.8276 18.6222 20.0943 19.266 20.0943 19.9373C20.0943 20.6087 19.8276 21.2525 19.3529 21.7272C18.8782 22.2019 18.2344 22.4686 17.5631 22.4686ZM16.7193 19.9373C16.7193 20.1611 16.8082 20.3757 16.9665 20.534C17.1247 20.6922 17.3393 20.7811 17.5631 20.7811C17.7869 20.7811 18.0015 20.6922 18.1597 20.534C18.3179 20.3757 18.4068 20.1611 18.4068 19.9373C18.4068 19.7136 18.3179 19.499 18.1597 19.3407C18.0015 19.1825 17.7869 19.0936 17.5631 19.0936C17.3393 19.0936 17.1247 19.1825 16.9665 19.3407C16.8082 19.499 16.7193 19.7136 16.7193 19.9373Z" fill="#272727"/>
</svg>
