<svg width="29" height="27" viewBox="0 0 29 27" fill="none" xmlns="http://www.w3.org/2000/svg">
<path fill-rule="evenodd" clip-rule="evenodd" d="M2.0921 0.151469C1.83391 0.0606657 1.55023 0.076146 1.30345 0.194505C1.05668 0.312864 0.867029 0.524406 0.776225 0.782594C0.685422 1.04078 0.700902 1.32447 0.819261 1.57124C0.93762 1.81802 1.14916 2.00767 1.40735 2.09847L1.7676 2.22359C2.68473 2.54672 3.28835 2.75984 3.73248 2.97847C4.1491 3.18334 4.33335 3.34972 4.45435 3.52572C4.5781 3.70722 4.67435 3.95747 4.72935 4.45659C4.78435 4.97909 4.78573 5.65972 4.78573 6.67722V10.42C4.78573 12.4178 4.80498 13.8575 4.99335 14.9575C5.1941 16.1317 5.5956 16.9732 6.34773 17.7652C7.16448 18.6273 8.19848 19.0027 9.43185 19.176C10.6116 19.3437 12.1104 19.3437 13.9597 19.3437H21.393C22.4132 19.3437 23.2712 19.3437 23.9642 19.2585C24.7026 19.1691 25.3736 18.9711 25.9607 18.494C26.5465 18.0155 26.8751 17.3981 27.1116 16.6941C27.3357 16.0313 27.509 15.1912 27.7152 14.1916L28.4137 10.7967L28.4165 10.7898L28.4302 10.7183C28.6571 9.58397 28.8469 8.62972 28.895 7.86247C28.9445 7.05672 28.8524 6.26197 28.3271 5.57997C28.004 5.15922 27.5502 4.92134 27.1364 4.77697C26.6892 4.62994 26.2271 4.5331 25.7586 4.48822C24.814 4.38372 23.6659 4.38372 22.5411 4.38372H6.79185C6.78772 4.33418 6.78314 4.28468 6.7781 4.23522C6.70385 3.55184 6.54435 2.92897 6.15523 2.36247C5.76473 1.79047 5.24498 1.42472 4.63998 1.12634C4.07348 0.848594 3.35298 0.595594 2.5046 0.297219L2.0921 0.151469ZM6.8496 6.44622H22.4971C23.6741 6.44622 24.7109 6.44759 25.529 6.53834C25.936 6.58509 26.2399 6.64834 26.453 6.72259C26.54 6.74749 26.6219 6.78752 26.695 6.84084C26.7802 6.95359 26.871 7.15709 26.8352 7.73597C26.7981 8.34647 26.6386 9.16047 26.3939 10.3842V10.387L25.7064 13.7145C25.4864 14.7911 25.3351 15.5061 25.1577 16.0355C24.9886 16.5387 24.8291 16.7546 24.6572 16.8948C24.4853 17.0351 24.2406 17.1478 23.7154 17.2111C23.1599 17.2798 22.4297 17.2812 21.3311 17.2812H14.0395C12.0911 17.2812 10.7395 17.2785 9.72198 17.1341C8.73748 16.9952 8.2191 16.7422 7.84373 16.3462C7.40373 15.8815 7.16585 15.4277 7.0256 14.6096C6.87435 13.7158 6.84823 12.4673 6.84823 10.42L6.8496 6.44622ZM9.31223 26.9062C8.49171 26.9062 7.7048 26.5803 7.12461 26.0001C6.54442 25.4199 6.21848 24.633 6.21848 23.8125C6.21848 22.992 6.54442 22.205 7.12461 21.6249C7.7048 21.0447 8.49171 20.7187 9.31223 20.7187C10.1327 20.7187 10.9196 21.0447 11.4998 21.6249C12.08 22.205 12.406 22.992 12.406 23.8125C12.406 24.633 12.08 25.4199 11.4998 26.0001C10.9196 26.5803 10.1327 26.9062 9.31223 26.9062ZM8.28098 23.8125C8.28098 24.086 8.38962 24.3483 8.58302 24.5417C8.77642 24.7351 9.03872 24.8437 9.31223 24.8437C9.58573 24.8437 9.84803 24.7351 10.0414 24.5417C10.2348 24.3483 10.3435 24.086 10.3435 23.8125C10.3435 23.539 10.2348 23.2767 10.0414 23.0833C9.84803 22.8899 9.58573 22.7812 9.31223 22.7812C9.03872 22.7812 8.77642 22.8899 8.58302 23.0833C8.38962 23.2767 8.28098 23.539 8.28098 23.8125ZM21.6872 26.9062C20.8667 26.9062 20.0798 26.5803 19.4996 26.0001C18.9194 25.4199 18.5935 24.633 18.5935 23.8125C18.5935 22.992 18.9194 22.205 19.4996 21.6249C20.0798 21.0447 20.8667 20.7187 21.6872 20.7187C22.5077 20.7187 23.2946 21.0447 23.8748 21.6249C24.455 22.205 24.781 22.992 24.781 23.8125C24.781 24.633 24.455 25.4199 23.8748 26.0001C23.2946 26.5803 22.5077 26.9062 21.6872 26.9062ZM20.656 23.8125C20.656 24.086 20.7646 24.3483 20.958 24.5417C21.1514 24.7351 21.4137 24.8437 21.6872 24.8437C21.9607 24.8437 22.223 24.7351 22.4164 24.5417C22.6098 24.3483 22.7185 24.086 22.7185 23.8125C22.7185 23.539 22.6098 23.2767 22.4164 23.0833C22.223 22.8899 21.9607 22.7812 21.6872 22.7812C21.4137 22.7812 21.1514 22.8899 20.958 23.0833C20.7646 23.2767 20.656 23.539 20.656 23.8125Z" fill="#FF6543"/>
</svg>
