<svg width="31" height="31" viewBox="0 0 31 31" fill="none" xmlns="http://www.w3.org/2000/svg">
<path fill-rule="evenodd" clip-rule="evenodd" d="M15.5 2.78125C12.1268 2.78125 8.89172 4.12126 6.5065 6.50649C4.12127 8.89171 2.78126 12.1268 2.78126 15.5C2.78126 17.5364 3.25976 19.4586 4.10814 21.1623C4.44914 21.847 4.57976 22.6637 4.36526 23.4681L3.54576 26.5275C3.51135 26.6557 3.51128 26.7906 3.54555 26.9189C3.57982 27.0471 3.64723 27.164 3.74101 27.2579C3.83478 27.3518 3.95161 27.4194 4.07977 27.4539C4.20794 27.4883 4.34291 27.4885 4.47114 27.4543L7.53326 26.6348C8.30709 26.4367 9.12661 26.5281 9.83776 26.8919C11.5967 27.7675 13.5352 28.2218 15.5 28.2188C18.8732 28.2187 22.1083 26.8787 24.4935 24.4935C26.8788 22.1083 28.2188 18.8732 28.2188 15.5C28.2188 12.1268 26.8788 8.89171 24.4935 6.50649C22.1083 4.12126 18.8732 2.78125 15.5 2.78125ZM0.718761 15.5C0.718761 7.33663 7.33664 0.71875 15.5 0.71875C23.6634 0.71875 30.2813 7.33663 30.2813 15.5C30.2813 23.6634 23.6634 30.2812 15.5 30.2812C13.1378 30.2812 10.902 29.7258 8.91788 28.7385C8.65656 28.5993 8.35347 28.5602 8.06539 28.6285L5.00464 29.4466C2.90914 30.0076 0.992386 28.0909 1.55339 25.9954L2.37289 22.9346C2.44115 22.6465 2.40204 22.3435 2.26289 22.0821C1.24464 20.0375 0.715996 17.7841 0.718761 15.5ZM20.3538 12.0213C20.5469 12.2146 20.6554 12.4767 20.6554 12.75C20.6554 13.0233 20.5469 13.2854 20.3538 13.4787L14.8538 18.9788C14.663 19.1697 14.4049 19.2783 14.135 19.2811C13.865 19.284 13.6048 19.1808 13.41 18.9939L10.66 16.3539C10.4627 16.1642 10.3488 15.904 10.3434 15.6304C10.338 15.3568 10.4415 15.0923 10.6311 14.895C10.8208 14.6977 11.081 14.5838 11.3546 14.5784C11.6282 14.573 11.8927 14.6765 12.09 14.8661L14.1113 16.8062L18.8963 12.0213C19.0896 11.8281 19.3517 11.7197 19.625 11.7197C19.8983 11.7197 20.1604 11.8281 20.3538 12.0213Z" fill="#FF6543"/>
</svg>
