<svg width="21" height="25" viewBox="0 0 21 25" fill="none" xmlns="http://www.w3.org/2000/svg">
<path fill-rule="evenodd" clip-rule="evenodd" d="M10.5001 0.40625C9.08281 0.40625 7.72361 0.96925 6.72146 1.9714C5.71931 2.97355 5.15631 4.33275 5.15631 5.75C5.15631 7.16725 5.71931 8.52645 6.72146 9.5286C7.72361 10.5307 9.08281 11.0937 10.5001 11.0937C11.9173 11.0937 13.2765 10.5307 14.2787 9.5286C15.2808 8.52645 15.8438 7.16725 15.8438 5.75C15.8438 4.33275 15.2808 2.97355 14.2787 1.9714C13.2765 0.96925 11.9173 0.40625 10.5001 0.40625ZM6.84381 5.75C6.84381 4.7803 7.22902 3.85032 7.9147 3.16464C8.60038 2.47896 9.53036 2.09375 10.5001 2.09375C11.4698 2.09375 12.3997 2.47896 13.0854 3.16464C13.7711 3.85032 14.1563 4.7803 14.1563 5.75C14.1563 6.7197 13.7711 7.64968 13.0854 8.33536C12.3997 9.02104 11.4698 9.40625 10.5001 9.40625C9.53036 9.40625 8.60038 9.02104 7.9147 8.33536C7.22902 7.64968 6.84381 6.7197 6.84381 5.75ZM10.5001 12.7812C7.89794 12.7812 5.49944 13.373 3.72306 14.372C1.97256 15.3575 0.656313 16.8492 0.656313 18.6875V18.8022C0.655188 20.1095 0.654063 21.7497 2.09294 22.922C2.80056 23.498 3.79169 23.9086 5.13044 24.1786C6.47144 24.4509 8.22081 24.5937 10.5001 24.5937C12.7793 24.5937 14.5276 24.4509 15.8708 24.1786C17.2096 23.9086 18.1996 23.498 18.9083 22.922C20.3472 21.7497 20.3449 20.1095 20.3438 18.8022V18.6875C20.3438 16.8492 19.0276 15.3575 17.2782 14.372C15.5007 13.373 13.1033 12.7812 10.5001 12.7812ZM2.34381 18.6875C2.34381 17.7301 3.04356 16.6906 4.54994 15.8435C6.03044 15.011 8.13194 14.4687 10.5012 14.4687C12.8682 14.4687 14.9697 15.011 16.4502 15.8435C17.9577 16.6906 18.6563 17.7301 18.6563 18.6875C18.6563 20.159 18.6113 20.987 17.8418 21.6125C17.4256 21.9522 16.7281 22.2841 15.5356 22.5249C14.3464 22.7656 12.7208 22.9062 10.5001 22.9062C8.27931 22.9062 6.65256 22.7656 5.46456 22.5249C4.27206 22.2841 3.57456 21.9522 3.15831 21.6136C2.38881 20.987 2.34381 20.159 2.34381 18.6875Z" fill="#272727"/>
</svg>
